<svg id="Layer_1" data-name="Layer 1" xmlns="http://www.w3.org/2000/svg" xmlns:xlink="http://www.w3.org/1999/xlink" viewBox="0 0 378.97 296.13" width="406" height="306" class="illustration"><defs><linearGradient id="linear-gradient" x1="189.67" y1="249.86" x2="32.62" y2="235.39" gradientUnits="userSpaceOnUse"><stop offset="0.01"></stop><stop offset="0.13" stop-opacity="0.69"></stop><stop offset="0.25" stop-opacity="0.32"></stop><stop offset="1" stop-opacity="0"></stop></linearGradient><linearGradient id="linear-gradient-2" x1="221.08" y1="202.23" x2="-29.49" y2="200.12" xlink:href="#linear-gradient"></linearGradient><linearGradient id="linear-gradient-3" x1="220.45" y1="204.04" x2="292.52" y2="226.14" xlink:href="#linear-gradient"></linearGradient><linearGradient id="linear-gradient-4" x1="225.1" y1="157.43" x2="-26.88" y2="130.97" xlink:href="#linear-gradient"></linearGradient><linearGradient id="linear-gradient-5" x1="226.88" y1="128.23" x2="181.35" y2="191.05" xlink:href="#linear-gradient"></linearGradient><linearGradient id="linear-gradient-6" x1="285.81" y1="92.02" x2="93.47" y2="71.2" xlink:href="#linear-gradient"></linearGradient><linearGradient id="linear-gradient-7" x1="272.04" y1="237.14" x2="270.46" y2="200.35" xlink:href="#linear-gradient"></linearGradient><linearGradient id="linear-gradient-8" x1="269.76" y1="255.6" x2="274" y2="187.84" xlink:href="#linear-gradient"></linearGradient><linearGradient id="linear-gradient-9" x1="155.5" y1="208.77" x2="452.98" y2="307.22" xlink:href="#linear-gradient"></linearGradient><linearGradient id="linear-gradient-10" x1="174.47" y1="213.56" x2="430.16" y2="298.18" xlink:href="#linear-gradient"></linearGradient><linearGradient id="linear-gradient-11" x1="271.45" y1="248.05" x2="292.1" y2="248.05" xlink:href="#linear-gradient"></linearGradient><linearGradient id="linear-gradient-12" x1="224.05" y1="129.84" x2="175.34" y2="85.63" xlink:href="#linear-gradient"></linearGradient><linearGradient id="linear-gradient-13" x1="132.35" y1="223.36" x2="46.59" y2="296.41" xlink:href="#linear-gradient"></linearGradient></defs><title>13</title><path d="M277.87,53.84c7.21,13.39,14.55,28,20.13,42,5.67,14.24,17.89,26.28,29.14,36.25,12.42,11,25.92,20.79,37.61,32.56s21.67,26,24.92,42.24c3.68,18.38-1.66,37.63-10.81,54A59.09,59.09,0,0,1,368,275.46c-4.52,4.22-10,7.29-15.51,10.06-14.76,7.38-30.28,13.11-46.67,15.32-17.06,2.3-34.41,1.28-51.44-.83-22.9-2.83-45.59-7.62-68.63-9-16.61-1-33.28-.18-49.87,1.07-17.75,1.33-35.85,3.13-53.16-1C60,285.67,40.31,270,28.28,249.92,17.79,232.46,6,199.26,15.18,179.68c9.78-20.85,36.29-35,53.65-48.67,7-5.53,14-11.62,18-19.62,4.46-8.92,4.79-19.25,6.64-29,6-31.75,30-59.45,60.63-69.87,43-14.66,94.94-4.93,120.28,35.34C275.61,49.78,276.77,51.8,277.87,53.84Z" transform="translate(-11.87 -6.02)" fill="#4E73DF" opacity="0.18" style="isolation: isolate;"></path><polygon points="292.4 243.21 284.46 243.21 284.46 242.52 291.7 242.52 291.7 177.74 263.78 177.74 263.78 81.98 238.15 81.98 238.15 81.29 264.47 81.29 264.47 177.05 292.4 177.05 292.4 243.21" fill="#4E73DF"></polygon><polygon points="133.41 132.49 132.71 132.49 132.71 109.59 150.58 109.59 150.58 88.92 151.27 88.92 151.27 110.29 133.41 110.29 133.41 132.49" fill="#4E73DF"></polygon><rect x="117.71" y="228.84" width="112.76" height="39.17" rx="10.43" fill="#4E73DF"></rect><rect x="117.71" y="182.25" width="112.76" height="39.17" rx="10.43" fill="#4E73DF"></rect><rect x="117.71" y="228.84" width="112.76" height="39.17" rx="10.43" fill="url(#linear-gradient)"></rect><rect x="117.71" y="182.25" width="112.76" height="39.17" rx="10.43" fill="url(#linear-gradient-2)"></rect><rect x="128.82" y="228.84" width="112.76" height="39.17" rx="10.43" fill="#4E73DF"></rect><path d="M253.45,198.7V217A10.42,10.42,0,0,1,243,227.45H151.13A10.43,10.43,0,0,1,140.7,217V198.7a10.43,10.43,0,0,1,10.43-10.43H243A10.43,10.43,0,0,1,253.45,198.7Z" transform="translate(-11.87 -6.02)" fill="#4E73DF"></path><path d="M253.45,201.77V217a10.46,10.46,0,0,1-4.08,8.28c-.08-3.24-.26-12.26,0-16.26A9.88,9.88,0,0,1,253.45,201.77Z" transform="translate(-11.87 -6.02)" fill="url(#linear-gradient-3)"></path><rect x="117.71" y="132.49" width="112.76" height="39.17" rx="10.43" fill="#4E73DF"></rect><rect x="117.71" y="132.49" width="112.76" height="39.17" rx="10.43" fill="url(#linear-gradient-4)"></rect><rect x="128.82" y="132.49" width="112.76" height="39.17" rx="10.43" fill="#4E73DF"></rect><path d="M223.1,165.3a2,2,0,0,0-1.15,2.2c.1.89.52,1.73.66,2.61.41,2.57-1.73,5.06-4.24,5.71-3.29.84-6.66-.82-9.58-2.55a4.51,4.51,0,0,1-1-.71,4.18,4.18,0,0,1-.82-2.13,23.51,23.51,0,0,1-.53-4.41c0-3.39,1.49-6.63,1.57-10a12.6,12.6,0,0,0-6.74-11.29,40,40,0,0,0-5.25-1.89,31.58,31.58,0,0,1-4.56-2c-.92-.48-1.93-1.16-2-2.19a10,10,0,0,1,4.92-.84h29a2,2,0,0,1,1.06.19,2,2,0,0,1,.7,1c1.94,4.65,1.71,9.8,2.11,14.73a30,30,0,0,0,1.33,7.09c.41,1.25,1.75,3.64.91,4.95C227.91,168.21,224.88,164.82,223.1,165.3Z" transform="translate(-11.87 -6.02)" fill="url(#linear-gradient-5)"></path><path d="M250,81.83a13.11,13.11,0,0,1-13.12,13.11H147a13.12,13.12,0,1,1,0-26.23H150a25.85,25.85,0,0,1,24.89-32.84h7.65a25.81,25.81,0,0,1,22.94,13.94,15.42,15.42,0,0,1,7.06-1.7h2a15.55,15.55,0,0,1,15.55,15.55v.77a15.53,15.53,0,0,1-.6,4.28h7.44A13.13,13.13,0,0,1,250,81.83Z" transform="translate(-11.87 -6.02)" fill="#fff"></path><path d="M184.9,81.93A10.5,10.5,0,0,0,186,79.45a72.4,72.4,0,0,1,3.37-7.72,9.27,9.27,0,0,1,2.26-3.18c1.81-1.48,4.36-1.52,6.7-1.49,1.56,0,3.34.15,4.28,1.39a5,5,0,0,1,.73,2.74A69.77,69.77,0,0,1,200.71,95q-6.45.33-12.92.57c-2.93.12-8.78,1.52-11.18-.58C170.48,89.65,182.87,84.83,184.9,81.93Z" transform="translate(-11.87 -6.02)" fill="url(#linear-gradient-6)"></path><path d="M283.45,225.3A2.35,2.35,0,0,1,281.1,223V207.77a10,10,0,1,0-20,0V223a2.35,2.35,0,0,1-4.7,0V207.77a14.7,14.7,0,1,1,29.4,0V223A2.35,2.35,0,0,1,283.45,225.3Z" transform="translate(-11.87 -6.02)" fill="#fff"></path><path d="M285.8,207.77V223a2.33,2.33,0,0,1-1.16,2,2.29,2.29,0,0,1-1.19.33A2.35,2.35,0,0,1,281.1,223V207.77a10,10,0,0,0-8.81-9.93,11.7,11.7,0,0,0-1.19-.07,10,10,0,0,0-10,10V223a2.35,2.35,0,0,1-1.16,2,2.32,2.32,0,0,1-1.2.33,2.36,2.36,0,0,1-2.35-2.35V207.77a14.72,14.72,0,0,1,14.71-14.7,11.71,11.71,0,0,1,1.19.06A14.7,14.7,0,0,1,285.8,207.77Z" transform="translate(-11.87 -6.02)" fill="url(#linear-gradient-7)"></path><path d="M285.8,207.77V223a1.34,1.34,0,1,1-2.31,0V207.77a10,10,0,0,0-10-10,11.9,11.9,0,0,0-1.2.07,11.7,11.7,0,0,0-1.19-.07,10,10,0,0,0-10,10V223a1.34,1.34,0,1,1-2.32,0V207.77a13.55,13.55,0,1,1,27,0Z" transform="translate(-11.87 -6.02)" fill="url(#linear-gradient-8)"></path><rect x="232.58" y="216.92" width="51.88" height="51.88" rx="9.04" fill="#4E73DF"></rect><rect x="232.58" y="216.93" width="51.87" height="51.87" rx="9.03" fill="url(#linear-gradient-9)"></rect><rect x="241.58" y="216.93" width="42.88" height="51.87" rx="9.03" fill="url(#linear-gradient-10)"></rect><path d="M274.84,247.19h0a3.3,3.3,0,1,1,2,0l2.57,8.16h-6.89Z" transform="translate(-11.87 -6.02)" fill="url(#linear-gradient-11)"></path><circle cx="146.49" cy="152.5" r="4.43" fill="#fff"></circle><circle cx="159.81" cy="152.5" r="4.43" fill="#fff"></circle><circle cx="173.14" cy="152.5" r="4.43" fill="#fff"></circle><circle cx="146.49" cy="201.84" r="4.43" fill="#fff"></circle><circle cx="159.81" cy="201.84" r="4.43" fill="#fff"></circle><circle cx="173.14" cy="201.84" r="4.43" fill="#fff"></circle><circle cx="146.49" cy="251.18" r="4.43" fill="#fff"></circle><circle cx="159.81" cy="251.18" r="4.43" fill="#fff"></circle><circle cx="173.14" cy="251.18" r="4.43" fill="#fff"></circle><path d="M226,155.63a8.52,8.52,0,0,0,.2,3.63,6,6,0,0,0,2.27,2.73,10.21,10.21,0,0,0,7.43,1.72,1.45,1.45,0,0,0,.94-.41,1.26,1.26,0,0,0,.25-.73,5.59,5.59,0,0,0-1.51-3.79,12.59,12.59,0,0,1-2.31-3.47c-.84-2.48.82-8.57-3.7-8.15C225.83,147.51,226.28,153,226,155.63Z" transform="translate(-11.87 -6.02)" fill="#ffbbab"></path><path d="M209.59,121.86a84.15,84.15,0,0,1,10.26,1c6,.92,9.84,3.47,11.32,9.49,1.36,5.5,2.72,11.07,2.7,16.74a5.19,5.19,0,0,1-1.07,3.74c-1.39,1.4-3.91.88-5.28-.52s-1.93-3.41-2.49-5.3c-.94-3.21-2.13-10.82-5.53-11.67-5.76-1.44-11.68,2.19-17.32,0a25.57,25.57,0,0,1-5.71-2.84,10.6,10.6,0,0,1-3.94-4.9,11.44,11.44,0,0,1-.59-3.29,14.13,14.13,0,0,1,.06-2.76c.18-1.06.36-.94,1.43-.93,1.81,0,3.61.14,5.41.31C202.42,121.23,206,121.76,209.59,121.86Z" transform="translate(-11.87 -6.02)" fill="#282328"></path><path d="M224.88,159.75s-.82,1.45-.17,2.45,7.9,6.93,13.72,3.68-6.62-5.4-6.62-5.4Z" transform="translate(-11.87 -6.02)" fill="#4E73DF"></path><path d="M225.66,156.22a1.13,1.13,0,0,1,1.37.55,4.67,4.67,0,0,0,4,2.07c1.78-.19,2.74-2.09,3.6-2s4.94,4.61,5,6.32-2.46,2.64-5.08,2.47-8.25-2.74-9.19-4.25A5.57,5.57,0,0,1,225.66,156.22Z" transform="translate(-11.87 -6.02)" fill="#fff"></path><path d="M213.33,161.81a8.47,8.47,0,0,0-.4,3.62,5.92,5.92,0,0,0,1.79,3.06,10.17,10.17,0,0,0,7.05,2.92,1.48,1.48,0,0,0,1-.25,1.3,1.3,0,0,0,.37-.68,5.63,5.63,0,0,0-.87-4,12.48,12.48,0,0,1-1.71-3.8c-.43-2.58,2.21-8.32-2.32-8.65C214.45,153.77,214,159.28,213.33,161.81Z" transform="translate(-11.87 -6.02)" fill="#ffbbab"></path><path d="M202.62,125.81a85.59,85.59,0,0,1,10,2.61c5.73,1.89,9.13,5,9.61,11.22.43,5.65.86,11.37-.08,17a5.2,5.2,0,0,1-1.67,3.51c-1.6,1.15-4,.23-5.13-1.38s-1.34-3.67-1.58-5.63c-.41-3.32-.33-11-3.55-12.42-3.4-1.48-7.19-1-10.8-1.2-1.88-.1-3.86-.47-5.7-.51-6.15-.13-7.43-4.71-7.64-5.43a22.55,22.55,0,0,1-1.14-7.14,18.1,18.1,0,0,1,.57-3.51c.23-1.07.24-1.19,1.4-1,1.79.3,3.55.73,5.29,1.19C195.66,124,199.09,125.12,202.62,125.81Z" transform="translate(-11.87 -6.02)" fill="#473f47"></path><path d="M211.51,165.69s-1,1.3-.57,2.39,6.65,8.13,12.93,5.87-5.64-6.41-5.64-6.41Z" transform="translate(-11.87 -6.02)" fill="#4E73DF"></path><path d="M212.85,162.34a1.14,1.14,0,0,1,1.27.77,4.66,4.66,0,0,0,3.63,2.7c1.79.1,3-1.62,3.88-1.38s4.12,5.36,3.87,7-2.86,2.2-5.41,1.6-7.69-4.05-8.37-5.69A5.56,5.56,0,0,1,212.85,162.34Z" transform="translate(-11.87 -6.02)" fill="#fff"></path><polygon points="212.78 113 197.27 118.66 208.27 125.47 223.95 116.62 212.78 113" fill="#4E73DF"></polygon><polygon points="212.78 113 197.27 118.66 208.27 125.47 223.95 116.62 212.78 113" fill="url(#linear-gradient-12)"></polygon><polygon points="196.57 120.23 208.62 128.58 228.76 120.23 236.49 104.66 213.2 111.66 208.27 125.47 197.27 118.66 196.57 120.23" fill="#4E73DF"></polygon><path d="M211,109.2c-1.2.72-2.46,1-3.48.27l-.25-.21c-1.62-1.59-1.88-5-1.81-7.49a27.66,27.66,0,0,1,.26-3.13l6.12-7.44L215,105.43A17.22,17.22,0,0,1,211,109.2Z" transform="translate(-11.87 -6.02)" fill="#fff"></path><path d="M211.05,105.64c-.11.68-.12,1.4-.22,2.1-.55,3.82-2,7.62-1.45,11.53a4.11,4.11,0,0,1-.06,2.6,3.13,3.13,0,0,1-1.82,1.3c-3.64,1.35-7.61,1.34-11.49,1.31-2.91,0-7.09.23-9.5-1.7a4.82,4.82,0,0,1-1.41-3.37,58.9,58.9,0,0,1,0-12.31l.12-1.6q.5-5.53,1.4-11c.45-2.64,1.08-5.48,3.11-7.23,2.7-2.33,7.42-3.43,10.9-3.56A11.52,11.52,0,0,1,204,84a14.42,14.42,0,0,1,4.29,2.2c1.56,1.08,2.95,2,3.53,3.79a23,23,0,0,1,1,6.33,21.86,21.86,0,0,1-.76,6c-.25.95-.64,1.88-.88,2.83C211.11,105.29,211.08,105.46,211.05,105.64Z" transform="translate(-11.87 -6.02)" fill="#fff"></path><path d="M192.28,125c-1.16.16-3.56-1.23-4.39-1.51-.49-.16-.92-.48-1.4-.68-2.44-1-1.69-8.15-1.66-10.1.1-5.15-.14-10.53.55-15.61a17.15,17.15,0,0,1,1.53-5.69,6.73,6.73,0,0,1,4.41-3.65,1.92,1.92,0,0,1,1.14,0c1.48.62,1.43,3.21,1.51,4.48a10.12,10.12,0,0,0,.79,3.72c.58,1.25,1.51,1.71,2.41,2.64a21.1,21.1,0,0,1,4.93,7.05c.52,1.4.79,2.88,1.25,4.31a31,31,0,0,0,5,8.65c.72,1,1.49,2.2,1.07,3.34a3.06,3.06,0,0,1-1.91,1.63,6.69,6.69,0,0,1-3.25.45c-2.61-.34-4.58-2.45-6.91-3.66-.81-.42-2.36-1.13-3.28-.73s-1.24,1.63-1.38,2.46c-.08.53.36,2.25.11,2.59A.73.73,0,0,1,192.28,125Z" transform="translate(-11.87 -6.02)" fill="#020202" opacity="0.1"></path><path d="M206.66,81.36a2.49,2.49,0,0,1-1.67.55,7.72,7.72,0,0,1-1.51-.2l-.27,0a.25.25,0,0,0-.21,0,.3.3,0,0,0-.13.21,17.78,17.78,0,0,0-.5,3h0l0,.55a1,1,0,0,1-.13.55,1,1,0,0,1-.67.31,4.33,4.33,0,0,1-1.39,0,6.06,6.06,0,0,1-2.62-1.39,27.91,27.91,0,0,0,.48-5.16c0-2.24-.24-4.51.32-6.68A3.65,3.65,0,0,1,203,70.16a8.33,8.33,0,0,1,4.3,1.88,1.79,1.79,0,0,1,.47,1.43c0,.89.05,1.78,0,2.67s-.13,2-.26,3A3.48,3.48,0,0,1,206.66,81.36Z" transform="translate(-11.87 -6.02)" fill="#ffbbab"></path><path d="M206.2,72.4c-1.14,0-2.35-.35-3.47-.07a3.35,3.35,0,0,0-2.21,3.81c-.46.09-.42-.7-.7-1.06s-1.1,0-1.23.48a3.27,3.27,0,0,0,.25,1.59,4.58,4.58,0,0,1-.25,3c-.1.22-.31.47-.53.38s-.34-.52-.45-.72A7.79,7.79,0,0,0,197,79c-.45-.53-1-1-1.43-1.54a4.15,4.15,0,0,1-1.31-3.37,2.71,2.71,0,0,1,.69-1.33A3,3,0,0,1,196,72c.16-.08.35-.16.41-.32a.76.76,0,0,0,0-.3,3.41,3.41,0,0,1,1.9-3.17,8.31,8.31,0,0,1,3.79-.8c.85,0,1.7,0,2.55,0a5.77,5.77,0,0,0,2.07-.18,6.08,6.08,0,0,0-.47-1.38,6.71,6.71,0,0,1,1.55,1,2.59,2.59,0,0,0-.1-.87,5.31,5.31,0,0,1,2.26,1.77,3,3,0,0,1-.41,3.35,4.21,4.21,0,0,1-3,1.28Z" transform="translate(-11.87 -6.02)" fill="#fc682d"></path><path d="M203.48,81.71l-.27,0a.25.25,0,0,0-.21,0,.3.3,0,0,0-.13.21,17.78,17.78,0,0,0-.5,3h0a4.06,4.06,0,0,1-2.14-4.68,17.13,17.13,0,0,0,3.23,1.51Z" transform="translate(-11.87 -6.02)" fill="#e0a194"></path><path d="M229.5,114.47c-.67-.28-1.24-.91-2-.88s-1.37.92-2,1.5A3.59,3.59,0,0,1,223,116a4.16,4.16,0,0,1-.86-.13,5.53,5.53,0,0,1-2.94-2.09s1.86-2.09,2.1-2.23c.82-.47,1.93-.43,2.81-.9a28.84,28.84,0,0,1,2.76-1.54,6.61,6.61,0,0,1,5.93.45c.22.13.46.37.34.61a.46.46,0,0,1-.23.2h0a6.11,6.11,0,0,1-3.24.35,8.1,8.1,0,0,1,1.78,1.18c.24.21.46.61.2.8a.56.56,0,0,1-.44,0l-2.42-.59a5.8,5.8,0,0,1,1.53,1.78.66.66,0,0,1,.1.38C230.3,114.58,229.82,114.61,229.5,114.47Z" transform="translate(-11.87 -6.02)" fill="#ffbbab"></path><path d="M229.5,114.47c-.67-.28-1.24-.91-2-.88s-1.37.92-2,1.5A3.59,3.59,0,0,1,223,116a3.69,3.69,0,0,1-.66-.39.8.8,0,0,1-.33-.42.68.68,0,0,1,.49-.72,5.88,5.88,0,0,1,1-.15,2.14,2.14,0,0,0,1.33-.82c.27-.36.44-.82.83-1a2,2,0,0,1,.82-.18l1.1-.07a1.16,1.16,0,0,0,.49-.1.41.41,0,0,0,.23-.41c0-.19-.23-.29-.41-.36-.36-.13-1.57-.2-.79-.63a5.39,5.39,0,0,1,1.78-.42,19,19,0,0,1,3.69,0,2.92,2.92,0,0,1,.39.07h0a6.11,6.11,0,0,1-3.24.35,8.1,8.1,0,0,1,1.78,1.18c.24.21.46.61.2.8a.56.56,0,0,1-.44,0l-2.42-.59a5.8,5.8,0,0,1,1.53,1.78.66.66,0,0,1,.1.38C230.3,114.58,229.82,114.61,229.5,114.47Z" transform="translate(-11.87 -6.02)" fill="#e0a194"></path><path d="M219.32,114.49a21.18,21.18,0,0,1-7.23-1.37,10.36,10.36,0,0,1-4.22-3.05,1.77,1.77,0,0,1-.33-.6,1.81,1.81,0,0,1,0-1.15,5.53,5.53,0,0,1,1.84-2.79c2.39-1.78,5.64-.1,5.64-.1s6.09,4.74,6.26,5.68c.1.51-.49,1.47-1.06,2.23S219.32,114.49,219.32,114.49Z" transform="translate(-11.87 -6.02)" fill="#fff"></path><rect x="187.59" y="87.49" width="11.03" height="25.96" rx="5.51" transform="translate(-27.63 33.14) rotate(-11.13)" fill="#fff"></rect><path d="M219.32,114.49a21.18,21.18,0,0,1-7.23-1.37c-.29-.11-1.78-1-2-.91a.49.49,0,0,0-.18.28l-.81,2.31a1.82,1.82,0,0,1-.82-1.45c-.06-.58,0-1.16-.06-1.73a10.73,10.73,0,0,0-.89-2.55c-1.09-2.78-.89-5.88-.68-8.86l2.22,5.81a6.51,6.51,0,0,0,.76,1.57,6.63,6.63,0,0,0,1,1A18,18,0,0,0,216,111.9c.34.14,4.08,1.73,4.28,1.44C219.76,114,219.32,114.49,219.32,114.49Z" transform="translate(-11.87 -6.02)" fill="#020202" opacity="0.1"></path><path d="M220.43,126.7c-.6-.53-1-1.39-1.77-1.59s-1.56.54-2.31,1a3.29,3.29,0,0,1-2.75.09,4.31,4.31,0,0,1-.83-.42,6.86,6.86,0,0,1-2.47-3.21s2.29-1.64,2.56-1.71c.92-.23,2,.17,3,0a27.51,27.51,0,0,1,3.07-.76,6.91,6.91,0,0,1,5.8,2.43c.19.22.37.56.21.77a.4.4,0,0,1-.27.14h0a6.06,6.06,0,0,1-3.3-.68,9.39,9.39,0,0,1,1.51,1.85c.2.3.33.8,0,.92-.14,0-.3,0-.44-.13l-2.28-1.43a7.37,7.37,0,0,1,1.14,2.42.71.71,0,0,1,0,.43C221.2,127.08,220.71,127,220.43,126.7Z" transform="translate(-11.87 -6.02)" fill="#ffbbab"></path><path d="M220.43,126.7c-.6-.53-1-1.39-1.77-1.59s-1.56.54-2.31,1a3.29,3.29,0,0,1-2.75.09,4.27,4.27,0,0,1-.57-.63,1,1,0,0,1-.25-.56.66.66,0,0,1,.65-.62,5.57,5.57,0,0,1,1,.15,1.85,1.85,0,0,0,1.5-.44c.35-.3.62-.74,1-.86a1.77,1.77,0,0,1,.85.07l1.12.29a1.22,1.22,0,0,0,.5,0,.39.39,0,0,0,.32-.37.72.72,0,0,0-.33-.51c-.33-.26-1.52-.74-.65-.94a4.84,4.84,0,0,1,1.85.12,19.12,19.12,0,0,1,3.67,1.24,2.81,2.81,0,0,1,.38.2h0a6.06,6.06,0,0,1-3.3-.68,9.39,9.39,0,0,1,1.51,1.85c.2.3.33.8,0,.92-.14,0-.3,0-.44-.13l-2.28-1.43a7.37,7.37,0,0,1,1.14,2.42.71.71,0,0,1,0,.43C221.2,127.08,220.71,127,220.43,126.7Z" transform="translate(-11.87 -6.02)" fill="#e0a194"></path><path d="M203.75,110l10.34,9.19-3.42,6.21S191,116.19,190,111.74s4.2-4.28,4.2-4.28S198.5,104.12,203.75,110Z" transform="translate(-11.87 -6.02)" fill="#fff"></path><rect x="246.91" y="114.16" width="42.09" height="42.09" fill="#4E73DF"></rect><rect x="84.02" y="94.66" width="30.86" height="42.09" fill="#4E73DF" opacity="0.18" style="isolation: isolate;"></rect><rect x="76.5" y="101.48" width="30.86" height="42.09" fill="#fff"></rect><path d="M73.55,225.36a13.34,13.34,0,0,0,2.17,6c4.8,8.48,10.18,16.83,17.61,23.12,10.93,9.24,25.23,13.23,39.05,17-1.23-.6-2.72-7-3.27-8.37-1.07-2.74-2.07-5.51-3.09-8.27-1.63-4.35-5-7.85-8.36-11.06A66,66,0,0,0,91,228.1,62.79,62.79,0,0,0,73.55,225.36Z" transform="translate(-11.87 -6.02)" fill="#4E73DF"></path><path d="M73.55,225.36a13.34,13.34,0,0,0,2.17,6c4.8,8.48,10.18,16.83,17.61,23.12,10.93,9.24,25.23,13.23,39.05,17-1.23-.6-2.72-7-3.27-8.37-1.07-2.74-2.07-5.51-3.09-8.27-1.63-4.35-5-7.85-8.36-11.06A66,66,0,0,0,91,228.1,62.79,62.79,0,0,0,73.55,225.36Z" transform="translate(-11.87 -6.02)" fill="url(#linear-gradient-13)"></path><path d="M127.62,230.11c-1.13-7.89-2.29-15.88-5.46-23.19s-8.67-14-16.14-16.73q-.33,16.94-.65,33.87c-.13,6.52-.24,13.17,1.63,19.42,3.29,11,14.68,23.81,25.65,27.43,1.63-5.26-1.1-13.23-1.88-18.7Z" transform="translate(-11.87 -6.02)" fill="#4E73DF"></path><rect x="195.79" y="200.05" width="34.67" height="3.57" fill="#fff"></rect><rect x="195.79" y="249.39" width="34.67" height="3.57" fill="#fff"></rect><path d="M269,134.19l10.6-5.54,10.17,5.51s-1.89,13.61-9.92,17.51C279.83,151.67,269.87,147.86,269,134.19Z" transform="translate(-11.87 -6.02)" fill="#fff"></path></svg>